<?xml version="1.0" encoding="UTF-8"?>
<svg height="16px" viewBox="0 0 16 16" width="16px" xmlns="http://www.w3.org/2000/svg">
    <path d="m 6.74996607418 10.18754790632 c 0 0.86328177645 -0.69921894952 1.56250072597 -1.56250008314 1.56250072597 s -1.56249944032 -0.69921894952 -1.56249944032 -1.56250072597 c 0 -0.86328113362 0.6992183067 -1.56250008314 1.56249944032 -1.56250008314 s 1.56250008314 0.69921894952 1.56250008314 1.56250008314 z m 0 0" fill="none" stroke="#241f31" stroke-width="1.2500034092"/>
    <path d="m 11.74996607418 10.18754790632 c 0 0.86328177645 -0.69921894952 1.56250072597 -1.56250008314 1.56250072597 s -1.56249944032 -0.69921894952 -1.56249944032 -1.56250072597 c 0 -0.86328113362 0.6992183067 -1.56250008314 1.56249944032 -1.56250008314 s 1.56250008314 0.69921894952 1.56250008314 1.56250008314 z m 0 0" fill="none" stroke="#241f31" stroke-width="1.2500034092"/>
    <g fill="#241f31">
        <path d="m 6.125 4.25 h 1.25 v 5.949219 h -1.25 z m 0 0"/>
        <path d="m 11.125 4.25 h 1.25 v 5.976562 h -1.25 z m 0 0"/>
        <path d="m 6.125 4.25 h 6.25 v 1.25 h -6.25 z m 0 0"/>
        <path d="m 2.417969 0 c -1.328125 0 -2.417969 1.089844 -2.417969 2.417969 v 11.164062 c 0 1.328125 1.089844 2.417969 2.417969 2.417969 h 11.164062 c 1.328125 0 2.417969 -1.089844 2.417969 -2.417969 v -11.164062 c 0 -1.328125 -1.089844 -2.417969 -2.417969 -2.417969 z m 0 1.117188 h 11.164062 c 0.730469 0 1.300781 0.570312 1.300781 1.300781 v 11.164062 c 0 0.730469 -0.570312 1.300781 -1.300781 1.300781 h -11.164062 c -0.730469 0 -1.300781 -0.570312 -1.300781 -1.300781 v -11.164062 c 0 -0.730469 0.570312 -1.300781 1.300781 -1.300781 z m 0 0"/>
    </g>
</svg>
